<?xml version="1.0" encoding="UTF-8" standalone="no"?>
<!-- Generator: Adobe Illustrator 16.0.3, SVG Export Plug-In . SVG Version: 6.00 Build 0)  -->

<svg
   version="1.1"
   id="Capa_1"
   x="0px"
   y="0px"
   width="974.86359"
   height="628.13202"
   viewBox="0 0 974.86359 628.13202"
   xml:space="preserve"
   sodipodi:docname="logo.svg"
   xmlns:inkscape="http://www.inkscape.org/namespaces/inkscape"
   xmlns:sodipodi="http://sodipodi.sourceforge.net/DTD/sodipodi-0.dtd"
   xmlns:xlink="http://www.w3.org/1999/xlink"
   xmlns="http://www.w3.org/2000/svg"
   xmlns:svg="http://www.w3.org/2000/svg"><defs
   id="defs9" /><sodipodi:namedview
   id="namedview9"
   pagecolor="#505050"
   bordercolor="#eeeeee"
   borderopacity="1"
   inkscape:showpageshadow="0"
   inkscape:pageopacity="0"
   inkscape:pagecheckerboard="0"
   inkscape:deskcolor="#505050" />&#10;<g
   id="g2"
   transform="translate(-8.9499998,-133.46899)">&#10;	<defs
   id="defs1"><rect
     id="SVGID_1_"
     width="1000"
     height="1000"
     x="0"
     y="0" /></defs>&#10;	<clipPath
   id="SVGID_2_">&#10;		<use
   xlink:href="#SVGID_1_"
   style="overflow:visible"
   id="use1" />&#10;	</clipPath>&#10;	<use
   xlink:href="#SVGID_1_"
   style="overflow:visible;fill:none;stroke:#636363;stroke-miterlimit:10"
   id="use2" />&#10;</g>&#10;&#10;<path
   style="fill:none;stroke:#000000;stroke-width:30;stroke-miterlimit:10;stroke-opacity:1"
   d="M 25.164,23.643006 C 17.71,31.097006 15,57.166006 15,57.166006 V 565.11601 c 0,0 3.176,21.51 11.664,29.998 7.896,7.896 32.999,18.018 32.999,18.018 h 857.956 c 0,0 27.107,-9.093 34.532,-16.518 9.813,-9.813 7.467,-38.998 7.467,-38.998 V 58.146006 c 0,0 -5.873,-23.876 -13.5,-31.503 -11.11,-11.111 -49.352,-11.643 -49.352,-11.643 H 56.663 c 0,0 -24.134,1.278 -31.499,8.643 z"
   id="path4" />&#10;<line
   style="fill:none;stroke:#000000;stroke-width:30;stroke-miterlimit:10;stroke-opacity:1"
   x1="15.000001"
   y1="126.79102"
   x2="952.15198"
   y2="126.79102"
   id="line4" />&#10;<rect
   x="714.75299"
   y="57.166"
   style="fill:none;stroke:#000000;stroke-width:30;stroke-miterlimit:10;stroke-opacity:1"
   width="48.172001"
   height="25.496"
   id="rect4" />&#10;<rect
   x="853.854"
   y="58.146011"
   style="fill:none;stroke:#000000;stroke-width:30;stroke-miterlimit:10;stroke-opacity:1"
   width="42.912998"
   height="25.497"
   id="rect5" />&#10;<g
   id="g8"
   style="fill:#000000"
   transform="translate(-8.9499998,-133.46899)">&#10;	<path
   style="fill:#000000"
   d="m 99.236,484.032 138.09,-79.806 v 50.383 l -91.366,50.382 91.366,47.562 v 53.606 L 99.236,526.353 Z"
   id="path5" />&#10;	<path
   style="fill:#000000"
   d="m 270.252,555.374 91.366,-49.576 -91.366,-47.965 V 290.605 l 138.09,193.427 v 42.321 l -138.09,178.23 z"
   id="path6" />&#10;	<path
   style="fill:#000000"
   d="m 441.935,484.032 138.09,-193.427 v 164.004 l -91.366,50.382 91.366,47.562 v 152.031 l -138.09,-178.23 z"
   id="path7" />&#10;	<path
   style="fill:#000000"
   d="m 662.021,412.725 61.682,-56.123 -71.162,292.618 -53.332,29.866 z"
   id="path8" />&#10;</g>&#10;<path
   style="fill:#000000;fill-opacity:1;stroke:#000000;stroke-opacity:1"
   d="m 868.268,405.53501 -138.09,79.806 v -50.383 l 91.366,-50.382 -91.366,-47.562 v -53.606 l 138.09,79.806 z"
   id="path9" />&#10;</svg>
