<?xml version="1.0" encoding="UTF-8" standalone="no"?>
<!-- Created with Inkscape (http://www.inkscape.org/) -->

<svg
   width="500.70099"
   height="500.61401"
   viewBox="0 0 132.47713 132.45413"
   version="1.1"
   id="svg1"
   xml:space="preserve"
   inkscape:export-filename="python.svg"
   inkscape:export-xdpi="96"
   inkscape:export-ydpi="96"
   xmlns:inkscape="http://www.inkscape.org/namespaces/inkscape"
   xmlns:sodipodi="http://sodipodi.sourceforge.net/DTD/sodipodi-0.dtd"
   xmlns="http://www.w3.org/2000/svg"
   xmlns:svg="http://www.w3.org/2000/svg"><sodipodi:namedview
     id="namedview1"
     pagecolor="#505050"
     bordercolor="#eeeeee"
     borderopacity="1"
     inkscape:showpageshadow="0"
     inkscape:pageopacity="0"
     inkscape:pagecheckerboard="0"
     inkscape:deskcolor="#505050"
     inkscape:document-units="mm"
     inkscape:zoom="0.57994529"
     inkscape:cx="396.58914"
     inkscape:cy="719.8955"
     inkscape:window-width="1600"
     inkscape:window-height="847"
     inkscape:window-x="-8"
     inkscape:window-y="-8"
     inkscape:window-maximized="1"
     inkscape:current-layer="layer1"
     inkscape:export-bgcolor="#ffffff00"
     showguides="true"><sodipodi:guide
       position="78.470042,17.486383"
       orientation="0,-1"
       id="guide17"
       inkscape:locked="false" /><sodipodi:guide
       position="148.95622,116.71449"
       orientation="0,-1"
       id="guide18"
       inkscape:locked="false" /><sodipodi:guide
       position="18.705068,68.58316"
       orientation="1,0"
       id="guide19"
       inkscape:locked="false" /><sodipodi:guide
       position="116.3364,82.269796"
       orientation="1,0"
       id="guide20"
       inkscape:locked="false" /></sodipodi:namedview><defs
     id="defs1"><linearGradient
       id="a"
       x1="-5.5086842"
       y1="63.45496"
       y2="133.96135"
       gradientTransform="matrix(0.6318911,0,0,0.37913467,4.8799962,26.538029)"
       x2="198.29675"
       gradientUnits="userSpaceOnUse"><stop
         offset="0"
         stop-color="#2298bd"
         id="stop1" /><stop
         offset="1"
         stop-color="#0ed7b5"
         id="stop2" /></linearGradient></defs><path
     d="m 67.530972,26.538028 c -16.706766,0 -27.148918,8.353631 -31.325488,25.060389 6.265098,-8.353623 13.574216,-11.486173 21.927839,-9.397648 4.765881,1.19135 8.17253,4.64939 11.943334,8.476484 6.142732,6.23524 13.251659,13.451359 28.779809,13.451359 16.706754,0 27.148904,-8.353626 31.325484,-25.060393 -6.26511,8.35363 -13.57422,11.486179 -21.92785,9.39765 C 103.48822,47.274521 100.08158,43.816482 96.310776,39.98939 90.16804,33.754147 83.059114,26.538028 67.530972,26.538028 Z M 36.205484,64.128612 c -16.706765,0 -27.1489208,8.353626 -31.3254878,25.060389 6.2650998,-8.353627 13.5742158,-11.486175 21.9278418,-9.397646 4.765881,1.191347 8.172525,4.649387 11.943333,8.47648 6.142734,6.235243 13.25166,13.451365 28.779801,13.451365 16.706763,0 27.148913,-8.353631 31.325494,-25.060394 C 92.59136,85.012433 85.282244,88.144981 76.928618,86.056454 72.162737,84.865105 68.756093,81.407067 64.985285,77.579971 58.842556,71.344732 51.733626,64.128612 36.205484,64.128612 Z"
     fill="url(#a)"
     id="path2"
     style="fill:url(#a);stroke-width:0.489459" /></svg>
